<?xml version="1.0" encoding="UTF-8"?>
<svg width="64" height="64" viewBox="0 0 64 64" fill="none" xmlns="http://www.w3.org/2000/svg">
  <path d="M44 12C38.477 12 34 16.477 34 22H30C30 16.477 25.523 12 20 12C14.477 12 10 16.477 10 22C10 33.046 30 46 32 47.348C34 46 54 33.046 54 22C54 16.477 49.523 12 44 12ZM32 43.156C27.348 40.477 14 30.139 14 22C14 18.686 16.686 16 20 16C23.314 16 26 18.686 26 22H38C38 18.686 40.686 16 44 16C47.314 16 50 18.686 50 22C50 30.139 36.652 40.477 32 43.156Z" fill="#E62429"/>
  <path d="M32 50C30.895 50 30 50.895 30 52C30 53.105 30.895 54 32 54C33.105 54 34 53.105 34 52C34 50.895 33.105 50 32 50Z" fill="#E62429"/>
</svg> 