<?xml version="1.0" encoding="UTF-8"?>
<svg width="64" height="64" viewBox="0 0 64 64" fill="none" xmlns="http://www.w3.org/2000/svg">
  <path d="M32 8C18.745 8 8 18.745 8 32C8 45.255 18.745 56 32 56C45.255 56 56 45.255 56 32C56 18.745 45.255 8 32 8ZM32 52C20.954 52 12 43.046 12 32C12 20.954 20.954 12 32 12C43.046 12 52 20.954 52 32C52 43.046 43.046 52 32 52Z" fill="#E62429"/>
  <path d="M32 20C25.373 20 20 25.373 20 32C20 38.627 25.373 44 32 44C38.627 44 44 38.627 44 32C44 25.373 38.627 20 32 20ZM32 40C27.582 40 24 36.418 24 32C24 27.582 27.582 24 32 24C36.418 24 40 27.582 40 32C40 36.418 36.418 40 32 40Z" fill="#E62429"/>
  <path d="M32 28C29.791 28 28 29.791 28 32C28 34.209 29.791 36 32 36C34.209 36 36 34.209 36 32C36 29.791 34.209 28 32 28Z" fill="#E62429"/>
  <path d="M32 16L34.828 19.172L32 22.344L29.172 19.172L32 16Z" fill="#E62429"/>
  <path d="M32 41.656L34.828 44.828L32 48L29.172 44.828L32 41.656Z" fill="#E62429"/>
  <path d="M41.656 32L44.828 34.828L48 32L44.828 29.172L41.656 32Z" fill="#E62429"/>
  <path d="M16 32L19.172 34.828L22.344 32L19.172 29.172L16 32Z" fill="#E62429"/>
</svg> 