<?xml version="1.0" encoding="UTF-8"?>
<svg width="64" height="64" viewBox="0 0 64 64" fill="none" xmlns="http://www.w3.org/2000/svg">
  <path d="M32 8C18.745 8 8 18.745 8 32C8 45.255 18.745 56 32 56C45.255 56 56 45.255 56 32C56 18.745 45.255 8 32 8ZM32 52C20.954 52 12 43.046 12 32C12 20.954 20.954 12 32 12C43.046 12 52 20.954 52 32C52 43.046 43.046 52 32 52Z" fill="#E62429"/>
  <path d="M32 20C27.037 20 23 24.037 23 29C23 31.385 23.948 33.5 25.456 35.088L32 42L38.544 35.088C40.052 33.5 41 31.385 41 29C41 24.037 36.963 20 32 20ZM32 33C29.791 33 28 31.209 28 29C28 26.791 29.791 25 32 25C34.209 25 36 26.791 36 29C36 31.209 34.209 33 32 33Z" fill="#E62429"/>
  <path d="M32 44C28.686 44 26 46.686 26 50H38C38 46.686 35.314 44 32 44Z" fill="#E62429"/>
</svg> 