<?xml version="1.0" encoding="UTF-8"?>
<svg width="64" height="64" viewBox="0 0 64 64" fill="none" xmlns="http://www.w3.org/2000/svg">
  <!-- Bulle de dialogue -->
  <path d="M56 24C56 13 45.6 4 32 4C18.4 4 8 13 8 24C8 31.4 12.4 37.9 19.6 41.6C19.2 45.3 18 48.7 16 51.6C15.8 51.9 15.7 52.3 15.8 52.7C15.9 53.1 16.2 53.4 16.6 53.5C17 53.6 17.4 53.5 17.7 53.2C22.4 49.4 25.9 44.4 27.6 38.8C29 39.1 30.5 39.2 32 39.2C45.6 39.2 56 32.1 56 24Z" 
    stroke="#E5383B" stroke-width="3" stroke-linecap="round" stroke-linejoin="round"/>
  
  <!-- Cœur -->
  <path d="M32 22C32 22 34 18 38 18C42 18 44 22 44 24C44 30 32 34 32 34C32 34 20 30 20 24C20 22 22 18 26 18C30 18 32 22 32 22Z" 
    fill="#E5383B">
    <animate attributeName="transform" attributeType="XML" type="scale" 
      values="1;1.1;1" dur="1s" repeatCount="indefinite" 
      additive="sum" calcMode="spline" 
      keySplines="0.4 0 0.2 1; 0.4 0 0.2 1" />
  </path>
</svg> 